<svg width="71" height="65" viewBox="0 0 71 65" fill="none" xmlns="http://www.w3.org/2000/svg">
<path d="M13.3629 31.536C11.7202 31.536 10.3975 31.088 9.39488 30.192C8.39221 29.296 7.89088 27.9733 7.89088 26.224C7.89088 25.52 7.94421 24.8693 8.05088 24.272C8.15754 23.6747 8.26421 23.0773 8.37088 22.48C8.49888 21.8613 8.56288 21.1787 8.56288 20.432C8.56288 19.7067 8.32821 19.0667 7.85888 18.512C7.41088 17.936 6.58954 17.5733 5.39488 17.424V14.128C6.58954 13.9787 7.41088 13.6373 7.85888 13.104C8.32821 12.5493 8.56288 11.888 8.56288 11.12C8.56288 10.3947 8.49888 9.73333 8.37088 9.136C8.26421 8.51733 8.15754 7.90933 8.05088 7.312C7.94421 6.71467 7.89088 6.05333 7.89088 5.328C7.89088 3.6 8.39221 2.288 9.39488 1.392C10.3975 0.495998 11.7202 0.0479984 13.3629 0.0479984H15.3789V3.44H14.1309C12.5949 3.44 11.8269 4.19733 11.8269 5.712C11.8269 6.544 11.9229 7.38667 12.1149 8.24C12.3282 9.072 12.4349 10.0853 12.4349 11.28C12.4349 12.4107 12.1575 13.3813 11.6029 14.192C11.0482 14.9813 10.1629 15.504 8.94688 15.76V15.824C10.1629 16.08 11.0482 16.6133 11.6029 17.424C12.1575 18.2133 12.4349 19.1733 12.4349 20.304C12.4349 21.4987 12.3282 22.5227 12.1149 23.376C11.9229 24.208 11.8269 25.04 11.8269 25.872C11.8269 27.3867 12.5949 28.144 14.1309 28.144H15.3789V31.536H13.3629ZM18.9601 26V23.024C20.3255 21.8933 21.6481 20.7733 22.9281 19.664C24.2295 18.5547 25.3815 17.456 26.3841 16.368C27.4081 15.28 28.2188 14.224 28.8161 13.2C29.4348 12.1547 29.7441 11.1413 29.7441 10.16C29.7441 9.24267 29.4881 8.432 28.9761 7.728C28.4855 7.024 27.6641 6.672 26.5121 6.672C25.3388 6.672 24.4535 7.056 23.8561 7.824C23.2588 8.592 22.9601 9.52 22.9601 10.608H18.9921C19.0348 8.96533 19.3975 7.6 20.0801 6.512C20.7628 5.40267 21.6695 4.58133 22.8001 4.048C23.9308 3.49333 25.2001 3.216 26.6081 3.216C28.8908 3.216 30.6615 3.84533 31.9201 5.104C33.2001 6.34133 33.8401 7.952 33.8401 9.936C33.8401 11.1733 33.5521 12.3787 32.9761 13.552C32.4215 14.7253 31.6855 15.856 30.7681 16.944C29.8508 18.032 28.8588 19.056 27.7921 20.016C26.7255 20.9547 25.6908 21.8293 24.6881 22.64H34.3841V26H18.9601ZM45.1134 26.384C43.6414 26.384 42.308 26.128 41.1134 25.616C39.9187 25.0827 38.9587 24.272 38.2334 23.184C37.508 22.096 37.124 20.7307 37.0814 19.088H41.1134C41.1347 20.176 41.4867 21.0933 42.1694 21.84C42.8734 22.5653 43.8547 22.928 45.1134 22.928C46.308 22.928 47.2254 22.5973 47.8654 21.936C48.5054 21.2747 48.8254 20.4427 48.8254 19.44C48.8254 18.2667 48.3987 17.3813 47.5454 16.784C46.7134 16.1653 45.636 15.856 44.3134 15.856H42.6494V12.496H44.3454C45.4334 12.496 46.34 12.24 47.0654 11.728C47.7907 11.216 48.1534 10.4587 48.1534 9.456C48.1534 8.624 47.876 7.96266 47.3214 7.472C46.788 6.96 46.0414 6.704 45.0814 6.704C44.036 6.704 43.2147 7.01333 42.6174 7.632C42.0414 8.25067 41.7214 9.008 41.6574 9.904H37.6574C37.7427 7.83467 38.4574 6.20267 39.8014 5.008C41.1667 3.81333 42.9267 3.216 45.0814 3.216C46.6174 3.216 47.908 3.49333 48.9534 4.048C50.02 4.58133 50.82 5.296 51.3534 6.192C51.908 7.088 52.1854 8.08 52.1854 9.168C52.1854 10.4267 51.8334 11.4933 51.1294 12.368C50.4467 13.2213 49.5934 13.7973 48.5694 14.096C49.828 14.352 50.852 14.9707 51.6414 15.952C52.4307 16.912 52.8254 18.128 52.8254 19.6C52.8254 20.8373 52.5267 21.968 51.9294 22.992C51.332 24.016 50.4574 24.8373 49.3054 25.456C48.1747 26.0747 46.7774 26.384 45.1134 26.384ZM56.6559 31.536V28.144H57.8719C59.4292 28.144 60.2079 27.3867 60.2079 25.872C60.2079 25.04 60.1012 24.208 59.8879 23.376C59.6745 22.5227 59.5679 21.4987 59.5679 20.304C59.5679 19.1733 59.8452 18.2133 60.3999 17.424C60.9545 16.6133 61.8505 16.08 63.0879 15.824V15.76C61.8505 15.504 60.9545 14.9813 60.3999 14.192C59.8452 13.3813 59.5679 12.4107 59.5679 11.28C59.5679 10.0853 59.6745 9.072 59.8879 8.24C60.1012 7.38667 60.2079 6.544 60.2079 5.712C60.2079 4.19733 59.4292 3.44 57.8719 3.44H56.6559V0.0479984H58.6399C60.2825 0.0479984 61.6052 0.495998 62.6079 1.392C63.6319 2.288 64.1439 3.6 64.1439 5.328C64.1439 6.05333 64.0799 6.71467 63.9519 7.312C63.8452 7.90933 63.7279 8.51733 63.5999 9.136C63.4932 9.73333 63.4399 10.3947 63.4399 11.12C63.4399 11.888 63.6745 12.5493 64.1439 13.104C64.6132 13.6373 65.4452 13.9787 66.6399 14.128V17.424C65.4452 17.5733 64.6132 17.936 64.1439 18.512C63.6745 19.0667 63.4399 19.7067 63.4399 20.432C63.4399 21.1787 63.4932 21.8613 63.5999 22.48C63.7279 23.0773 63.8452 23.6747 63.9519 24.272C64.0799 24.8693 64.1439 25.52 64.1439 26.224C64.1439 27.9733 63.6319 29.296 62.6079 30.192C61.6052 31.088 60.2825 31.536 58.6399 31.536H56.6559ZM3.76713 64.04L7.44713 55.944H6.48713L0.311125 41.128H4.75913L9.20713 52.296L13.8471 41.128H18.1991L8.11913 64.04H3.76713ZM25.0989 57.384C23.7335 57.384 22.6135 57.1707 21.7389 56.744C20.8642 56.296 20.2135 55.7093 19.7869 54.984C19.3602 54.2587 19.1469 53.4587 19.1469 52.584C19.1469 51.112 19.7229 49.9173 20.8749 49C22.0269 48.0827 23.7549 47.624 26.0589 47.624H30.0909V47.24C30.0909 46.152 29.7815 45.352 29.1629 44.84C28.5442 44.328 27.7762 44.072 26.8589 44.072C26.0269 44.072 25.3015 44.2747 24.6829 44.68C24.0642 45.064 23.6802 45.64 23.5309 46.408H19.5309C19.6375 45.256 20.0215 44.2533 20.6829 43.4C21.3655 42.5467 22.2402 41.896 23.3069 41.448C24.3735 40.9787 25.5682 40.744 26.8909 40.744C29.1522 40.744 30.9335 41.3093 32.2349 42.44C33.5362 43.5707 34.1869 45.1707 34.1869 47.24V57H30.6989L30.3149 54.44C29.8455 55.2933 29.1842 55.9973 28.3309 56.552C27.4989 57.1067 26.4215 57.384 25.0989 57.384ZM26.0269 54.184C27.2002 54.184 28.1069 53.8 28.7469 53.032C29.4082 52.264 29.8242 51.3147 29.9949 50.184H26.5069C25.4189 50.184 24.6402 50.3867 24.1709 50.792C23.7015 51.176 23.4669 51.656 23.4669 52.232C23.4669 52.8507 23.7015 53.3307 24.1709 53.672C24.6402 54.0133 25.2589 54.184 26.0269 54.184ZM44.6556 57.384C43.2476 57.384 42.0103 57.16 40.9436 56.712C39.877 56.2427 39.0236 55.6027 38.3836 54.792C37.7436 53.9813 37.3596 53.0427 37.2316 51.976H41.3596C41.4876 52.5947 41.829 53.128 42.3836 53.576C42.9596 54.0027 43.6956 54.216 44.5916 54.216C45.4876 54.216 46.1383 54.0347 46.5436 53.672C46.9703 53.3093 47.1836 52.8933 47.1836 52.424C47.1836 51.7413 46.885 51.2827 46.2876 51.048C45.6903 50.792 44.8583 50.5467 43.7916 50.312C43.109 50.1627 42.4156 49.9813 41.7116 49.768C41.0076 49.5547 40.357 49.288 39.7596 48.968C39.1836 48.6267 38.7143 48.2 38.3516 47.688C37.989 47.1547 37.8076 46.504 37.8076 45.736C37.8076 44.328 38.3623 43.144 39.4716 42.184C40.6023 41.224 42.181 40.744 44.2076 40.744C46.085 40.744 47.5783 41.1813 48.6876 42.056C49.8183 42.9307 50.4903 44.136 50.7036 45.672H46.8316C46.597 44.4987 45.7116 43.912 44.1756 43.912C43.4076 43.912 42.8103 44.0613 42.3836 44.36C41.9783 44.6587 41.7756 45.032 41.7756 45.48C41.7756 45.9493 42.085 46.3227 42.7036 46.6C43.3223 46.8773 44.1436 47.1333 45.1676 47.368C46.277 47.624 47.2903 47.912 48.2076 48.232C49.1463 48.5307 49.893 48.9893 50.4476 49.608C51.0023 50.2053 51.2796 51.0693 51.2796 52.2C51.301 53.1813 51.045 54.0667 50.5116 54.856C49.9783 55.6453 49.2103 56.264 48.2076 56.712C47.205 57.16 46.021 57.384 44.6556 57.384ZM54.9081 57V33.96H59.0041V43.56C59.5375 42.6853 60.2521 42.0027 61.1481 41.512C62.0655 41 63.1108 40.744 64.2841 40.744C66.2468 40.744 67.7615 41.3627 68.8281 42.6C69.9161 43.8373 70.4601 45.6507 70.4601 48.04V57H66.3961V48.424C66.3961 47.0587 66.1188 46.0133 65.5641 45.288C65.0308 44.5627 64.1775 44.2 63.0041 44.2C61.8521 44.2 60.8921 44.6053 60.1241 45.416C59.3775 46.2267 59.0041 47.3573 59.0041 48.808V57H54.9081Z" fill="url(#paint0_linear_103_295)"/>
<defs>
<linearGradient id="paint0_linear_103_295" x1="8.11336" y1="30.7557" x2="63.2227" y2="30.7557" gradientUnits="userSpaceOnUse">
<stop stop-color="#05B3FF"/>
<stop offset="1" stop-color="#F40058"/>
</linearGradient>
</defs>
</svg>
